<?xml version="1.0" encoding="UTF-8" standalone="no"?>
<!-- Created with Inkscape (http://www.inkscape.org/) -->

<svg
   xmlns:dc="http://purl.org/dc/elements/1.1/"
   xmlns:cc="http://creativecommons.org/ns#"
   xmlns:rdf="http://www.w3.org/1999/02/22-rdf-syntax-ns#"
   xmlns:svg="http://www.w3.org/2000/svg"
   xmlns="http://www.w3.org/2000/svg"
   xmlns:sodipodi="http://sodipodi.sourceforge.net/DTD/sodipodi-0.dtd"
   xmlns:inkscape="http://www.inkscape.org/namespaces/inkscape"
   width="210mm"
   height="297mm"
   viewBox="0 0 744.09448819 1052.3622047"
   id="svg3348"
   version="1.1"
   inkscape:version="0.91 r13725"
   sodipodi:docname="circlesquare.svg">
  <defs
     id="defs3350" />
  <sodipodi:namedview
     id="base"
     pagecolor="#ffffff"
     bordercolor="#666666"
     borderopacity="1.0"
     inkscape:pageopacity="0.0"
     inkscape:pageshadow="2"
     inkscape:zoom="1.16"
     inkscape:cx="375"
     inkscape:cy="520"
     inkscape:document-units="px"
     inkscape:current-layer="layer1"
     showgrid="false"
     inkscape:window-width="1276"
     inkscape:window-height="739"
     inkscape:window-x="-9"
     inkscape:window-y="-9"
     inkscape:window-maximized="1" />
  <metadata
     id="metadata3353">
    <rdf:RDF>
      <cc:Work
         rdf:about="">
        <dc:format>image/svg+xml</dc:format>
        <dc:type
           rdf:resource="http://purl.org/dc/dcmitype/StillImage" />
        <dc:title></dc:title>
      </cc:Work>
    </rdf:RDF>
  </metadata>
  <g
     inkscape:label="Layer 1"
     inkscape:groupmode="layer"
     id="layer1">
    <path
       style="fill:#000000"
       d="M 343.75,766.5304 C 272.9689,758.53344 208.06082,716.3393 170.8206,654.11595 162.19357,639.70135 156.4919,627.10034 150.63734,609.5098 116.27971,506.27931 156.73701,394.89294 249.375,337.66687 c 89.3561,-55.19872 206.52464,-42.39548 282.29488,30.84691 106.62595,103.06869 91.48807,276.64653 -31.39091,359.94264 -13.93408,9.44551 -37.74253,21.39267 -53.50226,26.8476 C 415.69296,766.06307 376.96504,770.2831 343.75,766.5304 Z m 65.64181,-7.7123 c 45.4173,-8.49532 88.96275,-31.13248 120.62275,-62.70589 10.77259,-10.74313 28.4766,-32.87278 32.4578,-40.57155 l 1.87557,-3.62694 -6.54897,-0.66237 c -8.16694,-0.82603 -382.17396,-2.10509 -382.17396,-1.307 0,0.31972 2.09823,3.80705 4.66274,7.74958 35.48143,54.54743 90.08067,90.33463 155.03298,101.61672 16.83717,2.92459 57.23883,2.65592 74.07109,-0.49255 z M 181.55529,632.67471 c 11.12955,-19.30946 72.39615,-124.31889 77.12335,-132.1875 10.65987,-17.74376 109.60057,-187.69742 110.23897,-189.36103 0.89851,-2.3415 -6.33102,-2.52912 -22.0754,-0.5729 -50.8533,6.31845 -96.48285,27.57319 -131.9168,61.44827 -42.7358,40.85569 -67.90528,96.37448 -70.14951,154.73566 -1.48283,38.5609 6.26199,74.76543 23.20034,108.45414 2.84717,5.66272 5.40561,10.29586 5.68543,10.29586 0.27983,0 3.83196,-5.76563 7.89362,-12.8125 z m 100.60452,-73.75034 c 0.1871,-46.57831 0.059,-84.67972 -0.28481,-84.6698 -0.34375,0.01 -7.59284,11.96322 -16.10909,26.56285 -44.11192,75.62229 -72.91375,124.96011 -77.52133,132.79479 l -5.14587,8.75 29.07564,0.67421 c 15.99161,0.37083 38.20381,0.65208 49.36046,0.625 l 20.28481,-0.0493 0.34019,-84.68783 z m 172.09773,45.62651 c -0.108,-36.48735 -0.25194,-39.03329 -1.78475,-31.56367 -6.11825,29.81505 -22.36444,51.71776 -47.40667,63.91252 -5.46363,2.66062 -11.08863,4.84609 -12.5,4.85662 -1.90553,0.0142 -2.13191,0.29431 -0.87936,1.08807 0.92773,0.58791 15.4121,1.14233 32.1875,1.23204 l 30.50074,0.1631 -0.1175,-39.68868 z m 95.24422,16.87383 c -7.42389,-12.54688 -29.95957,-50.9375 -50.07928,-85.3125 -20.11972,-34.375 -36.79869,-62.73438 -37.06439,-63.02084 -0.2657,-0.28645 -0.48309,38.10418 -0.48309,85.3125 l 0,85.83334 50.56237,0 50.56239,0 -13.498,-22.8125 z M 345,640.63666 c -19.68585,-7.11955 -35.12365,-20.18075 -45.98845,-38.90868 -1.79775,-3.09882 -4.95164,-10.69257 -7.00865,-16.875 l -3.74001,-11.24077 -0.0689,34.6875 -0.0689,34.6875 31.5625,-0.0451 31.5625,-0.0451 -6.25,-2.26036 z m 232.20311,-13.36334 c 12.75694,-29.27439 18.18025,-52.55395 19.2823,-82.76915 0.86906,-23.82715 -0.75289,-40.63505 -5.90271,-61.1687 C 576.31548,426.4485 543.52129,379.49765 495.625,347.38626 472.23174,331.70257 438.47601,318.05685 410.69968,313.05529 396.48467,310.49566 374.375,308.36762 374.375,309.55907 c 0,0.3743 20.8853,36.31438 46.41178,79.86684 25.52647,43.55246 55.14829,94.09255 65.82626,112.3113 28.32642,48.33051 45.0601,76.87366 64.67609,110.32 9.57872,16.33225 17.98848,29.51101 18.68836,29.28611 0.69988,-0.22489 3.95141,-6.55639 7.22562,-14.07 z M 389.375,636.01497 c 27.40301,-8.13391 45.94189,-27.22565 55.17637,-56.82181 3.64308,-11.67594 3.94949,-30.15248 0.70408,-42.45595 C 441.38716,522.0724 433.69707,508.33 423.864,498.51006 c -31.15535,-31.1137 -75.64429,-31.06113 -106.52959,0.12589 -9.88242,9.97896 -17.50571,23.58572 -21.34651,38.10126 -3.21161,12.13763 -2.88631,30.68035 0.74482,42.45595 7.70669,24.99236 20.57969,40.73596 42.01728,51.38687 17.39606,8.64295 33.86186,10.41067 50.625,5.43494 z m 65,-126.15276 0,-38.125 -29.6875,5.1e-4 -29.6875,5.1e-4 10.36877,5.1703 c 24.30353,12.11875 43.25342,38.28643 47.17339,65.14118 0.47669,3.26562 1.08408,5.9375 1.34977,5.9375 0.26568,0 0.48307,-17.15625 0.48307,-38.125 z m -155.62333,3.125 c 7.11941,-13.76149 22.72144,-28.96912 36.87333,-35.94121 l 10.625,-5.23452 -29.0625,-0.0371 -29.0625,-0.0371 0.10163,34.0625 0.10162,34.0625 2.78666,-8.75 c 1.53266,-4.8125 4.9692,-12.96875 7.63675,-18.125 z m 158.12333,-49.125 c 0,-0.89375 -0.49653,-2.15938 -1.10338,-2.8125 -0.60686,-0.65313 -9.97195,-16.375 -20.8113,-34.9375 -45.42399,-77.78907 -62.1077,-106.27294 -62.47135,-106.65654 -0.38884,-0.41019 -6.69067,10.17386 -39.31571,66.03154 -9.83801,16.84375 -24.27975,41.49876 -32.09277,54.78892 -7.81302,13.29017 -14.20549,24.39954 -14.20549,24.6875 0,0.28797 38.25,0.52358 85,0.52358 68.91026,0 85,-0.3076 85,-1.625 z"
       id="path3367"
       inkscape:connector-curvature="0" />
  </g>
</svg>
