<?xml version="1.0" encoding="UTF-8" standalone="no"?>
<!-- Created with Inkscape (http://www.inkscape.org/) -->

<svg
   xmlns:dc="http://purl.org/dc/elements/1.1/"
   xmlns:cc="http://creativecommons.org/ns#"
   xmlns:rdf="http://www.w3.org/1999/02/22-rdf-syntax-ns#"
   xmlns:svg="http://www.w3.org/2000/svg"
   xmlns="http://www.w3.org/2000/svg"
   xmlns:sodipodi="http://sodipodi.sourceforge.net/DTD/sodipodi-0.dtd"
   xmlns:inkscape="http://www.inkscape.org/namespaces/inkscape"
   width="20.377798mm"
   height="19.755772mm"
   viewBox="0 0 72.204796 70.000765"
   id="svg3373"
   version="1.1"
   inkscape:version="0.91 r13725"
   sodipodi:docname="noodleIcon1.svg">
  <defs
     id="defs3375" />
  <sodipodi:namedview
     id="base"
     pagecolor="#ffffff"
     bordercolor="#666666"
     borderopacity="1.0"
     inkscape:pageopacity="0.0"
     inkscape:pageshadow="2"
     inkscape:zoom="0.35"
     inkscape:cx="351.10239"
     inkscape:cy="-437.85676"
     inkscape:document-units="px"
     inkscape:current-layer="layer1"
     showgrid="false"
     showguides="false"
     fit-margin-top="0"
     fit-margin-left="0"
     fit-margin-right="0"
     fit-margin-bottom="0"
     inkscape:window-width="1366"
     inkscape:window-height="691"
     inkscape:window-x="-9"
     inkscape:window-y="39"
     inkscape:window-maximized="1" />
  <metadata
     id="metadata3378">
    <rdf:RDF>
      <cc:Work
         rdf:about="">
        <dc:format>image/svg+xml</dc:format>
        <dc:type
           rdf:resource="http://purl.org/dc/dcmitype/StillImage" />
        <dc:title></dc:title>
      </cc:Work>
    </rdf:RDF>
  </metadata>
  <g
     inkscape:label="Layer 1"
     inkscape:groupmode="layer"
     id="layer1"
     transform="translate(-23.897615,-17.361823)">
    <path
       inkscape:connector-curvature="0"
       id="path3346"
       d="m 70.210214,86.380509 c 0.877,-0.87702 0.9818,-1.31971 0.9818,-4.14784 l 0,-3.166141 2.5,-0.49072 C 85.296813,76.297918 94.607213,65.957567 95.833813,53.984126 l 0.2686,-2.62163 -36.102399,0 -36.102399,0 0.287,2.7 c 1.2819,12.058561 10.3539,22.116482 22.146199,24.552002 l 2.4601,0.50812 0,3.138151 c 0,2.79853 0.1063,3.24448 0.9818,4.12 l 0.9819,0.98182 9.2364,0 9.2365,0 0.9818,-0.98182 z m 5.9392,-38.051203 c 0.4596,-1.19766 0.2261,-6.379841 -0.5572,-12.367361 -0.8554,-6.538561 -1.0107,-13.001602 -0.3782,-15.744642 0.4661,-2.02156 0.034,-2.85545 -1.4807,-2.85545 -1.3777,0 -1.798,1.40547 -2.0339,6.8 -0.1482,3.389441 0.032,6.434241 0.685,11.569282 0.501,3.93984 0.8244,8.33024 0.744,10.10016 l -0.1421,3.130721 1.4601,0 c 0.9625,0 1.5429,-0.21566 1.703,-0.63271 z m -6.4,0 c 0.4596,-1.19766 0.2261,-6.379841 -0.5572,-12.367361 -0.8554,-6.538561 -1.0107,-13.001602 -0.3782,-15.744642 0.4661,-2.02156 0.034,-2.85545 -1.4807,-2.85545 -1.3777,0 -1.798,1.40547 -2.0339,6.8 -0.1482,3.389441 0.032,6.434241 0.685,11.569282 0.501,3.93984 0.8244,8.33024 0.744,10.10016 l -0.1421,3.130721 1.4601,0 c 0.9625,0 1.5429,-0.21566 1.703,-0.63271 z m -6.4,0 c 0.4596,-1.19766 0.2261,-6.379841 -0.5572,-12.367361 -0.8554,-6.538561 -1.0107,-13.001602 -0.3782,-15.744642 0.4661,-2.02156 0.034,-2.85545 -1.4807,-2.85545 -1.3777,0 -1.798,1.40547 -2.0339,6.8 -0.1482,3.389441 0.032,6.434241 0.685,11.569282 0.501,3.93984 0.8244,8.33024 0.744,10.10016 l -0.1421,3.130721 1.4601,0 c 0.9625,0 1.5429,-0.21566 1.703,-0.63271 z m -9.7651,-1.2679 c 0.7656,-0.384671 1.8006,-1.311011 2.3,-2.058531 1.1012,-1.64845 1.188,-4.60064 0.3129,-10.640961 -0.6726,-4.64192 -0.763,-11.629441 -0.1831,-14.144641 0.4661,-2.02157 0.034,-2.85545 -1.4807,-2.85545 -1.4102,0 -1.8149,1.44697 -2.0138,7.2 -0.1216,3.516481 0.054,6.720321 0.5907,10.797761 1.036,7.867201 0.6108,9.202241 -2.9317,9.202241 -1.788,0 -4.1863,-2.12608 -4.1863,-3.71104 0,-1.8184 -1.9933,-2.5162 -2.9316,-1.02621 -0.5691,0.90387 0.2477,3.53824 1.5926,5.13664 2.2114,2.628061 6.0727,3.536001 8.9312,2.099871 z m -7.8922,-17.197762 4.3002,-0.12858 0,-1.98646 0,-1.98647 -12.999999,0 -13,0 0,2.2 0,2.2 8.7001,-0.0849 c 4.785,-0.0467 10.634899,-0.14281 12.999999,-0.21353 z m 39.811199,-1.5248 c 0.489,-0.34246 0.889,-0.87613 0.889,-1.18592 0,-1.00861 -1.4784,-1.39139 -5.3737,-1.39139 l -3.826299,0 0,1.6 0,1.6 3.711099,0 c 2.7113,0 3.9504,-0.16774 4.6,-0.62269 z m 0.2755,-5.762561 c 0.8758,-0.96774 0.5667,-1.90042 -0.8023,-2.4209 -1.2142,-0.46163 -6.850499,-0.5336 -7.124099,-0.0909 -0.103,0.16668 -0.3137,0.97668 -0.4681,1.8 l -0.2809,1.49696 3.982399,0 c 3.4493,0 4.0778,-0.10511 4.6931,-0.78508 z m -35.619199,-1.26144 c 0.1494,-1.1257 0.2176,-2.09613 0.1516,-2.15658 -0.066,-0.0604 -6.0151,-0.24158 -13.219899,-0.40256 l -13.1001,-0.29266 0,2.44925 0,2.44924 12.9485,0 12.948399,0 0.2715,-2.04668 z" />
  </g>
</svg>
