<?xml version="1.0" encoding="UTF-8" standalone="no"?>
<svg id="svg3373" xmlns:rdf="http://www.w3.org/1999/02/22-rdf-syntax-ns#" xmlns="http://www.w3.org/2000/svg" height="19.756mm" width="20.378mm" fill="#ffffff" version="1.1" xmlns:cc="http://creativecommons.org/ns#" xmlns:dc="http://purl.org/dc/elements/1.1/" viewBox="0 0 72.204796 70.000765">
 <g id="layer1" transform="translate(-23.898 -17.362)">
  <path id="path3346" d="m70.21 86.381c.877-.87702.9818-1.3197.9818-4.1478v-3.1661l2.5-.49072c11.605-2.278 20.915-12.618 22.142-24.592l.2686-2.6216h-36.102-36.102l.287 2.7c1.2819 12.059 10.354 22.116 22.146 24.552l2.4601.50812v3.1382c0 2.7985.1063 3.2445.9818 4.12l.9819.98182h9.2364 9.2365l.9818-.98182zm5.9392-38.051c.4596-1.1977.2261-6.3798-.5572-12.367-.8554-6.5386-1.0107-13.002-.3782-15.745.4661-2.0216.034-2.8554-1.4807-2.8554-1.3777 0-1.798 1.4055-2.0339 6.8-.1482 3.3894.032 6.4342.685 11.569.501 3.9398.8244 8.3302.744 10.1l-.1421 3.1307h1.4601c.9625 0 1.5429-.21566 1.703-.63271zm-6.4 0c.4596-1.1977.2261-6.3798-.5572-12.367-.8554-6.5386-1.0107-13.002-.3782-15.745.4661-2.0216.034-2.8554-1.4807-2.8554-1.3777 0-1.798 1.4055-2.0339 6.8-.1482 3.3894.032 6.4342.685 11.569.501 3.9398.8244 8.3302.744 10.1l-.1421 3.1307h1.4601c.9625 0 1.5429-.21566 1.703-.63271zm-6.4 0c.4596-1.1977.2261-6.3798-.5572-12.367-.8554-6.5386-1.0107-13.002-.3782-15.745.4661-2.0216.034-2.8554-1.4807-2.8554-1.3777 0-1.798 1.4055-2.0339 6.8-.1482 3.3894.032 6.4342.685 11.569.501 3.9398.8244 8.3302.744 10.1l-.1421 3.1307h1.4601c.9625 0 1.5429-.21566 1.703-.63271zm-9.7651-1.2679c.7656-.38467 1.8006-1.311 2.3-2.0585 1.1012-1.6484 1.188-4.6006.3129-10.641-.6726-4.6419-.763-11.629-.1831-14.145.4661-2.0216.034-2.8554-1.4807-2.8554-1.4102 0-1.8149 1.447-2.0138 7.2-.1216 3.5165.054 6.7203.5907 10.798 1.036 7.8672.6108 9.2022-2.9317 9.2022-1.788 0-4.1863-2.1261-4.1863-3.711 0-1.8184-1.9933-2.5162-2.9316-1.0262-.5691.90387.2477 3.5382 1.5926 5.1366 2.2114 2.6281 6.0727 3.536 8.9312 2.0999zm-7.8922-17.198 4.3002-.12858v-1.9865-1.9865h-13-13v2.2 2.2l8.7001-.0849c4.785-.0467 10.635-.14281 13-.21353zm39.811-1.5248c.489-.34246.889-.87613.889-1.1859 0-1.0086-1.4784-1.3914-5.3737-1.3914h-3.8263v1.6 1.6h3.7111c2.7113 0 3.9504-.16774 4.6-.62269zm.2755-5.7626c.8758-.96774.5667-1.9004-.8023-2.4209-1.2142-.46163-6.8505-.5336-7.1241-.0909-.103.16668-.3137.97668-.4681 1.8l-.2809 1.497h3.9824c3.4493 0 4.0778-.10511 4.6931-.78508zm-35.619-1.2614c.1494-1.1257.2176-2.0961.1516-2.1566-.066-.0604-6.0151-.24158-13.22-.40256l-13.1-.29266v2.4492 2.4492h12.948 12.948l.2715-2.0467z"/>
 </g>
</svg>
